<svg xmlns="http://www.w3.org/2000/svg" width="19" height="19.556" viewBox="0 0 19 19.556">
  <g id="Logout" transform="translate(-1595.695 -2730.483)">
    <path id="Path_576" data-name="Path 576" d="M1622.416,2747.758l-3.085-2.423a.624.624,0,0,0-1.009.492v1.161h-4.14a.626.626,0,0,0-.626.625v1.31a.623.623,0,0,0,.626.625h4.14v1.161a.624.624,0,0,0,1.009.492l3.085-2.423A.65.65,0,0,0,1622.416,2747.758Z" transform="translate(-7.968 -8.025)" fill="#0093E2"/>
    <path id="Path_577" data-name="Path 577" d="M1595.695,2733.609v13.269a1.813,1.813,0,0,0,1.709,1.815l5.842,1.335a.492.492,0,0,0,.439-.117.6.6,0,0,0,.194-.447v-.766h2.1a1.813,1.813,0,0,0,1.8-1.82v-2.019a.816.816,0,1,0-1.632,0v2.019a.171.171,0,0,1-.17.172h-2.1v-13.613h2.1a.171.171,0,0,1,.17.172v2.018a.816.816,0,1,0,1.632,0v-2.018a1.813,1.813,0,0,0-1.8-1.82h-2.1v-.729a.6.6,0,0,0-.193-.445.491.491,0,0,0-.436-.12l-5.982,1.31a1.741,1.741,0,0,0-.348.081.547.547,0,0,0-.052.019A1.821,1.821,0,0,0,1595.695,2733.609Zm6.106,4.947c.506,0,.917.667.917,1.488s-.41,1.489-.917,1.489-.917-.667-.917-1.489S1601.3,2738.556,1601.8,2738.556Z" transform="translate(0 0)" fill="#0093E2"/>
  </g>
</svg>
