<svg xmlns="http://www.w3.org/2000/svg" width="22" height="22" viewBox="0 0 22 22">
  <g id="Group_28026" data-name="Group 28026" transform="translate(0.113 0.49)">
    <g id="Group_9012" data-name="Group 9012" transform="translate(-0.113 -0.49)">
      <g id="Group_9010" data-name="Group 9010" transform="translate(0 0)">
        <path id="Path_73" data-name="Path 73" d="M435.082,98a10.516,10.516,0,1,1,2.446-1.451" transform="translate(-420.004 -77.316)" fill="#e3fffb"/>
        <path id="Path_79" data-name="Path 79" d="M419.5,87.815a11,11,0,0,0,15.272,10.139.586.586,0,0,0-.456-1.08,9.844,9.844,0,1,1,2.289-1.358.587.587,0,0,0,.73.919A11,11,0,1,0,419.5,87.815Z" transform="translate(-419.503 -76.815)" fill="#2ca5a0"/>
      </g>
      <g id="Group_9020" data-name="Group 9020" transform="translate(4.767 6.966)">
        <path id="Path_835" data-name="Path 835" d="M625.651,137.553h0a.632.632,0,0,1-.445-.185l-3.911-3.912a.63.63,0,0,1,.891-.891l3.466,3.466,6.772-6.772a.63.63,0,1,1,.891.891l-7.218,7.217A.63.63,0,0,1,625.651,137.553Z" transform="translate(-621.111 -129.076)" fill="#2ca5a0"/>
      </g>
    </g>
  </g>
</svg>
