<svg xmlns="http://www.w3.org/2000/svg" width="22" height="22" viewBox="0 0 22 22">
  <g id="Group_28033" data-name="Group 28033" transform="translate(-419.503 -76.815)">
    <path id="Path_73" data-name="Path 73" d="M434.947,97.809a10.419,10.419,0,1,1,2.424-1.438" transform="translate(-0.404 -0.404)" fill="#ffd6d6"/>
    <path id="Path_9118" data-name="Path 9118" d="M429.3,97.151a.6.6,0,0,0,.843,0l4.425-4.425L439,97.151a.6.6,0,1,0,.843-.843l-4.425-4.425,4.425-4.425a.6.6,0,0,0-.843-.843l-4.425,4.425-4.425-4.425a.6.6,0,0,0-.843.843l4.424,4.425L429.3,96.307A.6.6,0,0,0,429.3,97.151Z" transform="translate(-4.067 -4.067)" fill="#ed2e2e"/>
    <path id="Path_9119" data-name="Path 9119" d="M419.5,87.815a11,11,0,0,0,15.272,10.139.586.586,0,1,0-.456-1.08,9.844,9.844,0,1,1,2.289-1.358.587.587,0,1,0,.73.919A11,11,0,1,0,419.5,87.815Z" transform="translate(0 0)" fill="#ed2e2e"/>
  </g>
</svg>
